<svg xmlns="http://www.w3.org/2000/svg" viewBox="0 0 225.01 233.49"><defs><style>.cls-1{isolation:isolate;}.cls-2,.cls-7{fill:#fafafa;}.cls-3{fill:#bdbdbd;}.cls-4{fill:#c2c2c2;}.cls-10,.cls-15,.cls-16,.cls-17,.cls-21,.cls-4,.cls-6,.cls-8,.cls-9{mix-blend-mode:multiply;}.cls-12,.cls-5{fill:#ff7200;}.cls-11,.cls-5,.cls-7{stroke:#000;stroke-miterlimit:10;}.cls-5{stroke-width:3px;}.cls-6{fill:#b0b0b0;}.cls-7{stroke-width:2px;}.cls-8{opacity:0.3;}.cls-9{opacity:0.28;}.cls-10{opacity:0.45;}.cls-11{fill:#ffd478;stroke-width:1.5px;}.cls-13{fill:#fff;}.cls-14{fill:#ccc;}.cls-15{fill:#5c5c5c;}.cls-16{fill:#d6d6d6;}.cls-17{opacity:0.15;}.cls-18{font-size:9.3px;font-family:RemachineScriptPersonalUse, Remachine Script Personal Use;}.cls-19{font-size:4.06px;font-family:MADESoulmaze, MADE Soulmaze;}.cls-20{letter-spacing:-0.01em;}.cls-21{opacity:0.44;}</style></defs><title>Asset 5</title><g class="cls-1"><g id="Layer_2" data-name="Layer 2"><g id="Layer_1-2" data-name="Layer 1"><path class="cls-2" d="M167.06,68.73c-7.83,0-17.36-1.3-27.25-2.75-3.42-.49-7.17-.93-11.13-1.3C116.82,63.6,105,63.37,97.19,63.37h-2c-5.53,0-9.07.15-9.1.15l-.68,0-.27-.62s-1-2.19-2.51-5.41c-.1-.18-.19-.38-.29-.59l-.17-.17v-.21c-2.31-4.81-5.77-11.74-9.37-17.8-.58-1-1.16-1.93-1.75-2.85a53,53,0,0,0-4.71-6.52l-.24-.27v-.37A30.06,30.06,0,0,1,69.71,14,30.39,30.39,0,0,1,83.38,1.16l.16-.07.17,0A13.93,13.93,0,0,1,85.22,1,64.26,64.26,0,0,1,95.48,2.22c7.16,1.24,11.1,3.29,11.74,6.1a54.09,54.09,0,0,1,8-.57A41.75,41.75,0,0,1,130,10.2,33.72,33.72,0,0,1,146.12,23C148.65,24.15,166,32.24,172,39.34a92,92,0,0,0,9.56,9c6.42,5.5,11.05,9.47,9.17,12.06a2,2,0,0,1-.27.29c-.15.17-.3.32-.46.47a23,23,0,0,1-8,5.24,30.93,30.93,0,0,1-7.65,1.91A53.26,53.26,0,0,1,167.06,68.73Z"/><path d="M85.22,2A64.11,64.11,0,0,1,95.31,3.2c5.71,1,11.34,2.85,11,6.28a51.07,51.07,0,0,1,8.87-.73,41.52,41.52,0,0,1,14.5,2.38,32.73,32.73,0,0,1,15.76,12.64S165,32.57,171.28,40,192.16,56.75,190,59.77l-.18.19-.42.42a22.18,22.18,0,0,1-7.66,5.05,30.47,30.47,0,0,1-7.41,1.85,53.13,53.13,0,0,1-7.23.45c-7.56,0-16.54-1.19-27.11-2.74-3.65-.53-7.42-1-11.18-1.31-11.73-1.07-23.41-1.31-31.58-1.31h-2c-5.61,0-9.13.15-9.13.15s-1-2.16-2.52-5.43q-.18-.36-.36-.75a0,0,0,0,1,0,0c-2.35-4.92-5.87-12-9.5-18.07-.59-1-1.17-2-1.77-2.89a53.88,53.88,0,0,0-4.8-6.63,29,29,0,0,1,3.47-14.28A29.34,29.34,0,0,1,83.81,2.06Q84.45,2,85.22,2m0-2a15.79,15.79,0,0,0-1.61.07l-.34,0L83,.25A31.5,31.5,0,0,0,68.83,13.49a31.1,31.1,0,0,0-3.71,15.26v.74l.49.55a52.58,52.58,0,0,1,4.61,6.38c.57.89,1.1,1.78,1.74,2.85C75.5,45.2,78.9,52,81.19,56.77v.37l.34.35.24.5c1.51,3.17,2.47,5.32,2.48,5.35l.55,1.23,1.35,0s3.56-.13,9.07-.15h2c7.79,0,19.57.23,31.4,1.31,3.95.36,7.68.8,11.07,1.29,9.93,1.45,19.5,2.76,27.4,2.76a55.39,55.39,0,0,0,7.5-.46,32.34,32.34,0,0,0,7.88-2,24.16,24.16,0,0,0,8.31-5.47c.16-.15.31-.3.47-.47a2.38,2.38,0,0,0,.26-.28l.05-.06.05-.06c2.43-3.33-2.25-7.34-9.33-13.41a92.1,92.1,0,0,1-9.45-8.84c-6-7.05-22.67-15-26-16.5A35.09,35.09,0,0,0,130.38,9.26a43,43,0,0,0-15.2-2.51,58,58,0,0,0-7.26.46c-1.84-4.17-9.48-5.49-12.27-6A64.17,64.17,0,0,0,85.22,0Z"/><path class="cls-3" d="M147.09,38.59c-.1.23-.27.6-.5,1.1A9.81,9.81,0,0,0,147.09,38.59Z"/><path class="cls-4" d="M126.75,29.22s-12.5,11-7.69,11.32a22.69,22.69,0,0,0,8.49-1.13s-6.14,3.67-1.27,5.69c0,0,9-3.26,11.51-9.37,0,0-1.15,7.33-7.19,10.44S137,50.08,137,50.08s10.06-.19,12.78-4.56a9.21,9.21,0,0,1-4.7,5.65c-3.64,1.6,1.31,5,5.74,4.86l-10.07,4.46s-29.54-4.42-30.09-4.56-2.64-8.42,2.68-15S118.15,36,126.75,29.22Z"/><path class="cls-4" d="M95.21,62.37c-5.61,0-9.13.15-9.13.15s-1-2.16-2.52-5.43q-.18-.36-.36-.75a0,0,0,0,1,0,0c-2.35-4.92-5.87-12-9.5-18.07-.27-3-.41-5-.41-5A6.44,6.44,0,0,0,80,36.55c4.21,1.56,3.37-5.72,6.34-12.52-2,4.53,3,16.19,8,25.16A49,49,0,0,1,95.21,62.37Z"/><path class="cls-4" d="M103.43,26.09s-3.88,16.56,1,13.26c0,0,.51,9.34,4.36,5.77a55.08,55.08,0,0,0,5.35-5.5S109.72,47.13,110,50.8s-9.18,1-9.18,1l-2-8.77s.2-6.72,1.76-10.76A44.74,44.74,0,0,1,103.43,26.09Z"/><polygon class="cls-5" points="40.1 231.99 3.3 231.99 15.93 216.78 3.3 202.29 40.1 202.29 40.1 231.99"/><path class="cls-6" d="M86.31,24s1.1,21.73,12.53,7.06c0,0-7.86,10.69,0,12.4,0,0,2,6.39,1.35,10.51s-5.86,5.68-5.86,5.68-3.7-11.32-5-14.16S87,37.33,84.81,33.85C83.45,29.52,86.31,24,86.31,24Z"/><polygon class="cls-5" points="184.91 231.99 221.71 231.99 209.08 216.78 221.71 202.29 184.91 202.29 184.91 231.99"/><path class="cls-7" d="M185.54,202v9.08H43.37V202c0-.65,0-1.3,0-1.95a60,60,0,0,1,59.92-58h22.26A60.12,60.12,0,0,1,185.54,202Z"/><polygon class="cls-8" points="104.04 154.45 100.81 154.63 104.04 201.46 106.3 201.46 104.04 154.45"/><path class="cls-9" d="M73,197.4l-1.1-11.18A40.83,40.83,0,0,1,73,192.46a23.06,23.06,0,0,1,0,7,12.64,12.64,0,0,1,7.6-9.59,18.5,18.5,0,0,1,8.11-1.66,11.24,11.24,0,0,0-4.86,1.31,24.1,24.1,0,0,0-6.25,4.1,29.12,29.12,0,0,0-6.19,8.08Z"/><path class="cls-8" d="M158.12,191.86l1.16-3.82s-3.49,5.36-3.14,11.43h.91S157.2,193.41,158.12,191.86Z"/><path class="cls-10" d="M108.89,153.89s5.42-1,5.42-3a63.52,63.52,0,0,0,7,3.57c1.86.59,7.24,0,7.24,0s14.14,10.62,19.91,6.91,5.77-12,5.77-12-15.53-7.92-21.3-6.71-19.78,2.42-22.81,1.78S108.89,153.89,108.89,153.89Z"/><path d="M83.37,189.69l-.64.31a15.21,15.21,0,0,0-1.69.93,19.63,19.63,0,0,0-4.69,4.1,20,20,0,0,0-3.18,5.36,16.07,16.07,0,0,0-.61,1.83l-.19.69.06-.72a10.41,10.41,0,0,1,.32-1.93,14.49,14.49,0,0,1,8.09-9.72,11.4,11.4,0,0,1,1.84-.67Z"/><path d="M72.08,188.48a55.41,55.41,0,0,1,.81,6.85,54.44,54.44,0,0,1-.06,6.91,54.52,54.52,0,0,1-.82-6.86A53,53,0,0,1,72.08,188.48Z"/><path class="cls-10" d="M107.25,153.2a58.39,58.39,0,0,1-6.45.43s-9.44,4.51-14.73,6.85c-5.52,2.45-8.69-.44-10.61-3.28a9.38,9.38,0,0,1-1.27-6.32,61.68,61.68,0,0,0-19.44,19.24c-6.36,10.17-8.39,23-8.09,29.48l-3.53-1.14A60.26,60.26,0,0,1,84.7,143.35l24,5.31S109.26,152.85,107.25,153.2Z"/><path d="M159.07,188.75l-.51,2.35c-.3,1.44-.65,3.45-.93,5.66s-.45,4.25-.52,5.72l-.09,2.41a23.16,23.16,0,0,1-.35-2.4A25.81,25.81,0,0,1,158.14,191C158.66,189.57,159.07,188.75,159.07,188.75Z"/><polygon points="105.3 210.54 102.49 153.9 120.2 153.9 121.32 143.72 123.31 143.94 121.99 155.9 104.59 155.9 107.29 210.44 105.3 210.54"/><circle class="cls-11" cx="114.19" cy="107.28" r="32.27"/><rect x="104.63" y="143.03" width="2" height="12.73" transform="translate(-60.64 73.03) rotate(-30.07)"/><path class="cls-12" d="M145.56,130.08s-19.39,3.12-19.39,13.8V145c0,10.41,19.39,13.8,19.39,13.8,3.37,0,6.09-3.66,6.09-8.18v-12.4C151.65,133.74,148.93,130.08,145.56,130.08Z"/><path d="M145.56,159.84h-.17c-.83-.14-20.22-3.66-20.22-14.79v-1.16c0-11.41,19.4-14.65,20.23-14.79h.16c3.91,0,7.09,4.12,7.09,9.18v12.41C152.65,155.73,149.47,159.84,145.56,159.84Zm.08-28.76c-1.33.23-18.47,3.42-18.47,12.8V145c0,9.13,17.1,12.54,18.47,12.8,2.77-.06,5-3.26,5-7.17V138.26C150.65,134.34,148.41,131.14,145.64,131.08Z"/><path class="cls-12" d="M118.33,137h5.21a6.79,6.79,0,0,1,6.79,6.79v1.27a6.79,6.79,0,0,1-6.79,6.79h-5.21a4,4,0,0,1-4-4v-6.8A4,4,0,0,1,118.33,137Z" transform="translate(244.64 288.92) rotate(180)"/><path d="M126.31,152.88h-5.22a7.79,7.79,0,0,1-7.78-7.78v-1.27a7.8,7.8,0,0,1,7.78-7.79h5.22a5,5,0,0,1,5,5v6.8A5,5,0,0,1,126.31,152.88ZM121.09,138a5.79,5.79,0,0,0-5.78,5.79v1.27a5.78,5.78,0,0,0,5.78,5.78h5.22a3,3,0,0,0,3-3v-6.8a3,3,0,0,0-3-3Z"/><path class="cls-12" d="M83.05,130.08s19.39,3.12,19.39,13.8V145c0,10.41-19.39,13.8-19.39,13.8-3.36,0-6.09-3.66-6.09-8.18v-12.4C77,133.74,79.69,130.08,83.05,130.08Z"/><path d="M83.14,159.84h-.09c-3.91,0-7.09-4.11-7.09-9.17V138.26c0-5.06,3.18-9.18,7.09-9.18h.16c.83.14,20.23,3.38,20.23,14.79V145c0,11.13-19.39,14.65-20.21,14.79ZM83,131.08c-2.78.06-5,3.26-5,7.18v12.41c0,3.91,2.24,7.11,5,7.17,1.38-.26,18.47-3.68,18.47-12.8v-1.16C101.44,134.49,84.3,131.31,83,131.08Z"/><path class="cls-12" d="M102.31,137h5.21a6.79,6.79,0,0,1,6.79,6.79v1.27a6.79,6.79,0,0,1-6.79,6.79h-5.21a4,4,0,0,1-4-4v-6.8a4,4,0,0,1,4-4Z"/><path d="M107.52,152.88h-5.21a5,5,0,0,1-5-5v-6.8a5,5,0,0,1,5-5h5.21a7.81,7.81,0,0,1,7.79,7.79v1.27A7.8,7.8,0,0,1,107.52,152.88ZM102.31,138a3,3,0,0,0-3,3v6.8a3,3,0,0,0,3,3h5.21a5.79,5.79,0,0,0,5.79-5.78v-1.27a5.8,5.8,0,0,0-5.79-5.79Z"/><path d="M96,112.91l-1.57-1.24a12.91,12.91,0,0,1,2.29-2.26,25.78,25.78,0,0,1,8.4-4.11,21.31,21.31,0,0,1-8.47-4.4,18,18,0,0,1-2.2-2.24L96,97.38a16.26,16.26,0,0,0,2,2c3,2.57,6.78,4.13,11.68,4.78a1,1,0,0,1,.09,2C104.36,107.37,100.51,109,98,111A11.1,11.1,0,0,0,96,112.91Z"/><path class="cls-13" d="M109.51,105.13a38.7,38.7,0,0,0-9.43,3.27,18.73,18.73,0,0,0-2.74,1.78,10.48,10.48,0,0,1-1.27-5.05,10.68,10.68,0,0,1,1.24-5,18.5,18.5,0,0,0,2.72,1.95A24.74,24.74,0,0,0,109.51,105.13Z"/><path d="M97.34,111.18a.68.68,0,0,1-.2,0,1,1,0,0,1-.68-.5,11.55,11.55,0,0,1-1.39-5.53,11.66,11.66,0,0,1,1.36-5.47,1,1,0,0,1,.7-.52,1,1,0,0,1,.84.23,17.38,17.38,0,0,0,2.57,1.84,23.41,23.41,0,0,0,9.1,2.93,1,1,0,0,1,.1,2,37.57,37.57,0,0,0-9.19,3.17A18.13,18.13,0,0,0,98,111,1,1,0,0,1,97.34,111.18Zm.35-9.47a9.76,9.76,0,0,0,0,7c.58-.39,1.21-.77,1.88-1.14a31.79,31.79,0,0,1,5.51-2.24,22.55,22.55,0,0,1-5.6-2.35A19.39,19.39,0,0,1,97.69,101.71Z"/><path d="M109.51,105.13a38.7,38.7,0,0,0-9.43,3.27,10.71,10.71,0,0,1-.51-3.27,10.35,10.35,0,0,1,.46-3.06A24.74,24.74,0,0,0,109.51,105.13Z"/><rect x="118.15" y="104.38" width="15.39" height="1.55"/><path class="cls-13" d="M114.19,132.68h0a13.38,13.38,0,0,1-13.38-13.38v-1.19c8.76,5.5,17.7,4.76,26.75,0v1.19A13.38,13.38,0,0,1,114.19,132.68Z"/><path d="M114.19,133.68A14.4,14.4,0,0,1,99.81,119.3v-3l1.53,1c7.87,4.95,16.3,4.94,25.76,0l1.46-.77v2.84A14.39,14.39,0,0,1,114.19,133.68Zm-12.37-13.81a12.38,12.38,0,0,0,24.74-.13C117.61,124,109.48,124.07,101.82,119.87Z"/><path class="cls-10" d="M36.8,228l-16.94-2.19-.55-22.36,4.12-2.83a64.43,64.43,0,0,1-.37,6.68c-.27.92,19,10.9,19.24,11.91l-1.19,8.7Z"/><path class="cls-10" d="M188.88,228l16.94-2.19.55-22.36-4.12-2.83a64.43,64.43,0,0,0,.37,6.68c.27.92-19,10.9-19.24,11.91l1.19,8.7Z"/><circle cx="108.51" cy="179.57" r="1.62"/><circle cx="109.51" cy="197.01" r="1.62"/><circle cx="107.51" cy="162.14" r="1.62"/><circle cx="121.32" cy="179.57" r="1.62"/><circle cx="121.32" cy="197.01" r="1.62"/><circle cx="121.32" cy="162.14" r="1.62"/><path class="cls-12" d="M202.66,222.75a735.51,735.51,0,0,1-179.54,0V197a901.83,901.83,0,0,0,179.54,0Z"/><path d="M113.26,229.72a750.17,750.17,0,0,1-90.32-5.48l-1.32-.16V195.35l1.65.17a900.66,900.66,0,0,0,179.25,0l1.64-.16v28.72l-1.31.16A732.29,732.29,0,0,1,113.26,229.72Zm-88.64-8.3a737.35,737.35,0,0,0,176.54,0V198.66a902.33,902.33,0,0,1-176.54,0Z"/><path d="M97.88,149.24s-11.32,6.4-15.31,4.19a33.38,33.38,0,0,0,16.11-6.62Z"/><path d="M98.16,139.48s-11-5.71-15.1-3.25a30,30,0,0,1,15.75,5.64Z"/><polygon points="98.28 145.39 83.06 144.03 98.28 143.37 98.28 145.39"/><path d="M130.6,149.24s11.33,6.4,15.31,4.19a33.33,33.33,0,0,1-16.1-6.62Z"/><path d="M130.32,139.48s11-5.71,15.11-3.25a30,30,0,0,0-15.76,5.64Z"/><polygon points="130.2 145.39 145.43 144.03 130.2 143.37 130.2 145.39"/><path d="M98.84,63l-.27-.35c-.17-.23-.43-.56-.79-1-.68-.84-1.82-1.9-3.14-3.35A21.7,21.7,0,0,1,91,52.46a50.59,50.59,0,0,1-2.61-8c-.73-2.76-2-5.27-2.91-7.71A16.27,16.27,0,0,1,84.2,30a12.38,12.38,0,0,1,1.25-4.47L86.31,24l-.67,1.54a12.72,12.72,0,0,0-.8,4.41,16.8,16.8,0,0,0,1.62,6.38,56.55,56.55,0,0,1,3.14,7.79A68.78,68.78,0,0,0,92,52a23.16,23.16,0,0,0,3.17,5.85c1.16,1.52,2.21,2.72,2.8,3.63a11.29,11.29,0,0,1,.67,1.06Z"/><path d="M103.43,26.09l-.49,1.2c-.32.77-.79,1.89-1.33,3.27a43.28,43.28,0,0,0-1.6,4.92,15.91,15.91,0,0,0-.43,6.14c.25,2.2.72,4.32,1,6.31a17.8,17.8,0,0,1,.06,5.34,10.43,10.43,0,0,1-.52,2,14.93,14.93,0,0,1-.65,1.4l-.72,1.09.54-1.17c.14-.39.29-.88.45-1.43A13,13,0,0,0,100,53.2a20.52,20.52,0,0,0-.48-5.1c-.37-1.91-.93-4-1.19-6.34A17.15,17.15,0,0,1,98.19,40a16,16,0,0,1,.09-1.71A16.21,16.21,0,0,1,99,35.19,30,30,0,0,1,101,30.3c.69-1.34,1.3-2.38,1.73-3.1Z"/><path d="M127.55,27.93l-.19.34a8.11,8.11,0,0,1-.61.95,14.28,14.28,0,0,1-3,2.91c-1.39,1.08-3.18,2.17-5,3.51A18,18,0,0,0,114,41a29.9,29.9,0,0,0-2.84,6.7,34.66,34.66,0,0,0-1.38,5.86,32.49,32.49,0,0,1-.6,4.08q-.18.72-.3,1.08l-.12.38.06-.39c.05-.25.11-.62.16-1.1.14-1,.12-2.35.16-4.1a29.64,29.64,0,0,1,1-6.1,26.08,26.08,0,0,1,2.79-7.07,17,17,0,0,1,5.28-5.54c1.95-1.3,3.79-2.22,5.24-3.15a15.49,15.49,0,0,0,3.17-2.52,8.64,8.64,0,0,0,.72-.85Z"/><path d="M137.79,35.93l-.61,1c-.2.33-.43.74-.73,1.19l-1.12,1.49c-.41.55-1,1.07-1.51,1.68s-1.24,1.14-1.94,1.73a32.56,32.56,0,0,1-5,3.2c-1.84,1-3.62,1.8-5.14,2.69A17.52,17.52,0,0,0,118,51.68,9.63,9.63,0,0,0,116.78,53c-.17.2-.34.39-.47.58l-.34.52-.64,1L115.8,54l.26-.59c.1-.21.25-.42.39-.66a9.56,9.56,0,0,1,1.07-1.53A15.47,15.47,0,0,1,121.16,48c1.53-1,3.31-1.94,5.12-2.91a50.83,50.83,0,0,0,5-2.92c.7-.53,1.39-1,2-1.52s1.17-1,1.63-1.47l1.27-1.3.89-1Z"/><path d="M149.8,45.52l-.63.81-.34.43-.48.45c-.18.16-.36.34-.57.51l-.71.49a11.83,11.83,0,0,1-3.94,1.48,38.18,38.18,0,0,0-4.75,1.22,25,25,0,0,0-7.53,4.63l-.65.52-.54.5-.88.81L128,58l.62-.81.73-.95.46-.59.57-.61c.41-.43.84-.92,1.34-1.4s1.07-1,1.69-1.46a17.68,17.68,0,0,1,4.51-2.51,24.25,24.25,0,0,1,5-1.08,13.67,13.67,0,0,0,3.83-1l.72-.35c.22-.13.42-.27.61-.4l.53-.35.4-.35Z"/><path d="M171.11,59.45l-.29.12a5.59,5.59,0,0,1-.86.27,8.71,8.71,0,0,1-3.35.13,19.36,19.36,0,0,1-4.76-1.4,37.78,37.78,0,0,0-5.49-2,11.63,11.63,0,0,0-5.61.12,23.67,23.67,0,0,0-4.46,1.7c-1.24.61-2.22,1.15-2.91,1.53l-1.06.58,1-.75c.62-.48,1.52-1.16,2.71-1.92a19.81,19.81,0,0,1,4.47-2.18,12.75,12.75,0,0,1,3-.59,10.53,10.53,0,0,1,3.24.26,26.82,26.82,0,0,1,5.65,2.27,22.84,22.84,0,0,0,4.44,1.76,9.59,9.59,0,0,0,3.2.31c.38,0,.68-.09.88-.13Z"/><path class="cls-2" d="M143.48,98.31a9,9,0,0,1-.84-1.59,5.83,5.83,0,0,0-1-1.74,25.92,25.92,0,0,0-7.52-3.41l-.95-.26c-.64-.17-1.11-.27-1.3-.31h-6.95c-11.27,0-24.76.09-28.82.26a13.28,13.28,0,0,0-4.59,1.11c-.5.21-1,.44-1.47.7a23.88,23.88,0,0,0-4.13,2.77c-.88.71-1.39,1.23-1.4,1.23l-1.71,1.74V60.05a5.82,5.82,0,0,1,1.77-3.7c5.11-5.28,21.39-7.16,34.92-7.16,1.31,0,2.57,0,3.77.05.91,0,1.8.06,2.63.1H126l.13,0,2.11.72h.24l.15.14,1.51.55.55.2,1,.35.38.15c7.45,2.8,12.94,5.41,13,5.44l.47.22.09.52c.08.52,2.13,12.89-.44,22.68-1.23,4.49-.32,11.57.13,14.41a15.8,15.8,0,0,1,0,3l-.25,2.55Z"/><path d="M119.5,50.19c1.3,0,2.55,0,3.74.05.91,0,1.79.06,2.61.1l2.26.78h0l2.26.82,1.32.49c7.49,2.82,12.91,5.41,12.91,5.41s2.13,12.57-.42,22.26c-1.27,4.65-.37,11.78.11,14.82a15.07,15.07,0,0,1,0,2.77c-.63-.83-1.15-2.88-2.05-3.53a27.12,27.12,0,0,0-7.82-3.56l-.95-.26C132.55,90.11,132,90,132,90h-7.06c-9.13,0-24.39.07-28.85.26a14.42,14.42,0,0,0-4.94,1.18c-.54.23-1.06.48-1.55.74a26.08,26.08,0,0,0-4.3,2.88c-.93.76-1.47,1.31-1.47,1.31V60.05a4.83,4.83,0,0,1,1.48-3c5-5.21,21.83-6.86,34.21-6.86m0-2v0h0c-6.66,0-28.93.54-35.65,7.47a6.75,6.75,0,0,0-2,4.23v41.39l3.43-3.49s.49-.49,1.31-1.16a23.89,23.89,0,0,1,4-2.66c.46-.24.93-.47,1.4-.67a12.62,12.62,0,0,1,4.24-1c4-.17,17.51-.24,28.77-.26h6.86c.21,0,.63.14,1.17.29l.42.11.49.14A24.66,24.66,0,0,1,141,95.77a7.69,7.69,0,0,1,.7,1.36,8.85,8.85,0,0,0,1,1.78l3.09,4.08.49-5.09a15.13,15.13,0,0,0,0-3.29c-.43-2.76-1.32-9.67-.15-14,2.63-10,.55-22.59.46-23.12l-.17-1-.94-.45c-.22-.11-5.58-2.66-13.07-5.48l-.4-.15-.95-.35-.58-.21-1.25-.46-.27-.27h-.5l-2-.68-.27-.09H126l-2.67-.11c-1.21,0-2.48-.05-3.78-.05Z"/><path class="cls-4" d="M144.31,94.93a15.07,15.07,0,0,1,0,2.77c-.63-.83-1.15-2.88-2.05-3.53a27.12,27.12,0,0,0-7.82-3.56,9.24,9.24,0,0,0-.11-2.75,22.37,22.37,0,0,0-7-12.79s7.17.34,7.19-11.47a23.9,23.9,0,0,0-2.75-11.16c7.49,2.82,12.91,5.41,12.91,5.41s2.13,12.57-.42,22.26C142.93,84.76,143.83,91.89,144.31,94.93Z"/><path class="cls-14" d="M103.44,16.47a7,7,0,0,1,.41-.62C103.73,16.05,103.59,16.26,103.44,16.47Z"/><path class="cls-4" d="M190,59.77l-.18.19a5.58,5.58,0,0,0-1-.91c-12.49,12.87-21.68,3.3-22,2.93,15.11,8.91,20.74-5.92,20.74-5.92-5.78,6.56-16.7.59-17.66,0,10.82,5.71,16.75-2,14.36-3.37s-12.5-10.81-15.94-14.52-4.81-3.16-14-8.93c-8.6-5.39-11.53.26-11.88,1,.41-1.07,4.38-12.48-13.71-18.77-16-5.54-22.91,1.74-24.72,4.19,8.23-13.25-20.12-13-20.12-13C73.43,6.87,64.1,25,69.18,27.93c4.31,2.46,11.81,22.35,14,28.38-3.8-7.94-10.63-21.41-16.07-27.59a29,29,0,0,1,3.47-14.28A29.34,29.34,0,0,1,83.81,2.06c2.47-.25,6.5.26,11.5,1.14,5.71,1,11.34,2.85,11,6.28,0,0,12.54-2.47,23.37,1.65a32.73,32.73,0,0,1,15.76,12.64S165,32.57,171.28,40,192.16,56.75,190,59.77Z"/><path class="cls-15" d="M103.43,26.09s-3.21,11.5-2.62,13.32,1.78,12.8,1.78,12.8l-2.25-.66s-2.68-11.87-1.5-14A64.33,64.33,0,0,1,103.43,26.09Z"/><path class="cls-15" d="M127.31,28.24s-.3,2.89-8.17,8.17c0,0-7.86,9.41-6,13.78l-3.57.43S112.79,41,113.66,40a41.22,41.22,0,0,1,5.17-4.9c1.33-.87,3.79-3,4.79-3.34a13.09,13.09,0,0,0,3.13-2.57A4.07,4.07,0,0,0,127.31,28.24Z"/><path class="cls-15" d="M137.79,35.93s-3,7.77-9.14,10l-6.89,3.9h-2.15s5.45-3.35,6-3.67,5.5-3,6.28-3.85,3.31-2.46,3.81-3.18S137.79,35.93,137.79,35.93Z"/><path class="cls-16" d="M95.71,78c-.15.31-3.19,6.09-7.75,4.13,0,0-3.78,9.62,1.62,10.12a26.08,26.08,0,0,0-4.3,2.88c-.93.76-1.47,1.31-1.47,1.31V60.05a4.83,4.83,0,0,1,1.48-3A11.12,11.12,0,0,0,86,63.3c3.49,8.89,10.63.59,11.11,0-.23.45-4,7.71-10.14,9.71C86.92,73,88.57,82,95.71,78Z"/><path class="cls-17" d="M78,143.72s0,12.23,4,12.83,16.89-6.41,16.89-6.41-5,2.21-5.58,1.1.94-1.8,3.61-3.69l0-1.85-4.64-.52-3.12-1.83,7.62-.16.07-2.27s-10.1-4.71-15.28-4.46c0,0,4.22-1.58,16,3.47l-.56-1s.42-1.66,1.57-1.57a26.28,26.28,0,0,1,.24,6.16,55.12,55.12,0,0,0,.47,8.85s-15,6.75-15,6.75-5.87-2.37-5.87-2.37L76.71,147Z"/><path class="cls-17" d="M98.81,141.87a15,15,0,0,1,6.44-1.05c3.44.28,8.53,1.5,8.52,3.81a7.4,7.4,0,0,1,4.76-2.76c3.14-.43,11.67,0,11.67,0s1.5-3.73-5.5-4.76-10,3.76-10,3.76a8,8,0,0,0-3.66-2.83c-2.44-.93-9.91-1.44-11.4,0S98.81,141.87,98.81,141.87Z"/><path class="cls-17" d="M130.2,138.74c.12-.23,7.37-6.83,16.25-6.64a7.12,7.12,0,0,1,3.57,7.45c-.64,5.46.63,14.34.63,14.34s1.74-14.8.92-16.92-1.88-6.34-5.12-6.89-17.89,7.66-17.89,7.66Z"/><path class="cls-17" d="M145.43,136.23s-12.21,2.47-15.23,5.64c0,0,.5-1.46.54-1.53s7.76-3.57,9.69-3.76S145.43,136.23,145.43,136.23Z"/><polygon class="cls-17" points="145.43 144.03 130.97 145.91 130.97 144.38 145.43 144.03"/><path class="cls-17" d="M130.79,149s11.86,5,14,4.63c0,0-3.52,1.3-10.72-2.3S130.79,149,130.79,149Z"/><path class="cls-17" d="M100.81,118.11s7.36,4.16,12.5,3.85,14.25-3.85,14.25-3.85a1.64,1.64,0,0,1,.43.79,1.33,1.33,0,0,1,0,.69,1.37,1.37,0,0,1-.52.64c-5.34,3.79-14.17,3.6-14.17,3.6s-9.13-.19-12.19-3.6a2.16,2.16,0,0,1-.45-.81A2,2,0,0,1,100.81,118.11Z"/><text class="cls-18" transform="translate(79.75 174.96) scale(1.05 1)">Foodees</text><text class="cls-19" transform="translate(83.31 179.76) scale(1.05 1)"><tspan class="cls-20">PL</tspan><tspan x="5.74" y="0">UG</tspan></text><path class="cls-21" d="M171.39,208.42a9.31,9.31,0,0,0-6.83-2.56c-.26,0-.53,0-.79,0a10.63,10.63,0,0,0-4.68,1.33,2.84,2.84,0,0,0-1.82-.69h-.16l-4.12.21a3,3,0,0,0-1.06.26,3,3,0,0,0-1-.16h-.13l-4.09.19a2.82,2.82,0,0,0-2.68,2.38l-.65,4-.75,0c.15-.87.3-1.76.49-2.91a2.83,2.83,0,0,0-2.79-3.3h-.1l-4.12.13a2.85,2.85,0,0,0-2,.95,8.47,8.47,0,0,0-3.74-.8l-5.46.1a2.82,2.82,0,0,0-2.54,1.71,2.85,2.85,0,0,0-.29,0h-.58a2.62,2.62,0,0,0-.87.16,7.21,7.21,0,0,0-1.48-.15h0a5.79,5.79,0,0,0-3.6,1.24,5,5,0,0,0-3.49-1.21,6.94,6.94,0,0,0-1.91.27,7.5,7.5,0,0,0-2.36,1.11c-.24.17-.46.38-.69.57a4.7,4.7,0,0,0-4.17-2,7.07,7.07,0,0,0-1.87.25,7.61,7.61,0,0,0-1.31.48l.28-.84a2.84,2.84,0,0,0-2.7-3.72,3.42,3.42,0,0,0-.45,0l-1,.17c-.49.07-1,.13-1.41.17l-1.31.08a2.84,2.84,0,0,0-2.52,2l-.15.49a3,3,0,0,0-.12.94,8,8,0,0,0-3,1.76l0,0a5.16,5.16,0,0,0-1.14-1.1,6.35,6.35,0,0,0-3.58-1.17h-.26a7.88,7.88,0,0,0-5.15,2l-.05-.08A5.4,5.4,0,0,0,76,209.66a6.4,6.4,0,0,0-3.57-1.21h-.35a7.23,7.23,0,0,0-1.92.26l.07-.19a2.85,2.85,0,0,0-2.54-3.74c-4.18-.22-6.27-.35-10.45-.62h-.19A2.85,2.85,0,0,0,54.39,206l-.17.48a2.79,2.79,0,0,0,.62,2.92c-.81,2-1.37,3.43-2.31,5.75a2.83,2.83,0,0,0-2,1.81l-.17.48a2.84,2.84,0,0,0,2.48,3.77l6,.39H59a2.84,2.84,0,0,0,2.68-1.92l.17-.49a3,3,0,0,0,.15-.83h0a2.79,2.79,0,0,0,.63.08,2.89,2.89,0,0,0,1-.2,5.33,5.33,0,0,0,3.6,3.79,7,7,0,0,0,2.07.41h.29a7.66,7.66,0,0,0,3.94-1.12,9.31,9.31,0,0,0,1.21-.84,5.6,5.6,0,0,0,2.83,2,6.83,6.83,0,0,0,2.08.39h.2a7.6,7.6,0,0,0,4-1.17,9.81,9.81,0,0,0,.81-.58.75.75,0,0,1,.07.12,4.76,4.76,0,0,0,3.81,1.91h.14a5.57,5.57,0,0,0,2-.39,4.12,4.12,0,0,0,1.85.48h.18a5.43,5.43,0,0,0,3.5-1.38,5.28,5.28,0,0,0,.57.47,5.81,5.81,0,0,0,3.28,1h.15a6.67,6.67,0,0,0,4.7-2,5.33,5.33,0,0,0,1.12,1.05,5.84,5.84,0,0,0,3.29,1h.08a6.53,6.53,0,0,0,3.57-1.05l0,0a2.83,2.83,0,0,0,2.14,1h.61a2.75,2.75,0,0,0,1-.17,5.23,5.23,0,0,0,1.47.19h.09a6.07,6.07,0,0,0,3.32-1,2.85,2.85,0,0,0,1.46.42h0l4.21-.07a2.82,2.82,0,0,0,2.71-2.23,11.34,11.34,0,0,0,1.69-.26,2.79,2.79,0,0,0,2.77,2.33h.08c4-.1,5.93-.17,9.89-.32a2.81,2.81,0,0,0,1.83-.78,8.86,8.86,0,0,0,3.9.78h.68c2.85-.13,4.95-1,6.37-2.59a9,9,0,0,0,5.74,1.93l.64,0a11.53,11.53,0,0,0,2.77-.49,2.34,2.34,0,0,0,.38,0H167l2.69-.18a2.84,2.84,0,0,0,2.62-2.47l.65-5.16c0-.11,0-.23,0-.34a.66.66,0,0,0,0-.14A5.89,5.89,0,0,0,171.39,208.42Z"/><path d="M172.39,207.74a9.28,9.28,0,0,0-6.83-2.57l-.79,0a10.76,10.76,0,0,0-4.68,1.33,2.83,2.83,0,0,0-1.82-.68h-.16l-4.12.21a3,3,0,0,0-1.06.27,2.75,2.75,0,0,0-1-.17h-.13l-4.09.18a2.82,2.82,0,0,0-2.68,2.38l-.65,4.05-.75,0c.15-.86.3-1.75.49-2.91a2.83,2.83,0,0,0-2.79-3.3h-.1c-1.65.06-2.47.09-4.12.13a2.86,2.86,0,0,0-2,1,8.47,8.47,0,0,0-3.74-.81l-5.46.11a2.81,2.81,0,0,0-2.54,1.71,2.85,2.85,0,0,0-.29,0h-.58a2.64,2.64,0,0,0-.87.17,6.58,6.58,0,0,0-1.48-.16h0a5.85,5.85,0,0,0-3.6,1.24,5,5,0,0,0-3.49-1.21,6.94,6.94,0,0,0-1.91.27,7.5,7.5,0,0,0-2.36,1.11c-.24.18-.46.38-.69.57a4.72,4.72,0,0,0-4.17-2,7.51,7.51,0,0,0-1.87.25,7.65,7.65,0,0,0-1.31.49c.09-.28.18-.55.28-.84a2.87,2.87,0,0,0-.54-2.73,2.84,2.84,0,0,0-2.16-1l-.45,0-1,.17c-.49.08-1,.13-1.41.17l-1.31.09a2.83,2.83,0,0,0-2.52,2l-.15.48a3.06,3.06,0,0,0-.12.95,7.78,7.78,0,0,0-3,1.76l0,0a5.66,5.66,0,0,0-1.14-1.1,6.43,6.43,0,0,0-3.58-1.17h-.26a7.88,7.88,0,0,0-5.15,2l-.05-.07A5.17,5.17,0,0,0,77,209a6.41,6.41,0,0,0-3.57-1.22h-.35a7.66,7.66,0,0,0-1.92.26l.07-.19a2.85,2.85,0,0,0-.35-2.5,2.82,2.82,0,0,0-2.19-1.23c-4.18-.23-6.27-.35-10.45-.63h-.19a2.84,2.84,0,0,0-2.67,1.87l-.17.48a2.79,2.79,0,0,0,.62,2.92c-.81,2-1.37,3.43-2.31,5.75a2.85,2.85,0,0,0-2,1.81l-.17.48a2.84,2.84,0,0,0,2.48,3.77c2.38.17,3.57.24,6,.39H60A2.84,2.84,0,0,0,62.67,219l.17-.48a3.1,3.1,0,0,0,.15-.84h0a3.47,3.47,0,0,0,.63.07,2.89,2.89,0,0,0,1-.2,5.33,5.33,0,0,0,3.6,3.79,6.74,6.74,0,0,0,2.07.41h.29a7.57,7.57,0,0,0,3.94-1.12,10.34,10.34,0,0,0,1.21-.83,5.72,5.72,0,0,0,2.83,2,6.83,6.83,0,0,0,2.08.39h.2a7.6,7.6,0,0,0,4-1.17,9.73,9.73,0,0,0,.81-.57.67.67,0,0,1,.07.11,4.8,4.8,0,0,0,3.81,1.92h.14a5.75,5.75,0,0,0,2-.38,4.4,4.4,0,0,0,1.85.48h.18a5.43,5.43,0,0,0,3.5-1.38,5.35,5.35,0,0,0,.57.48,5.8,5.8,0,0,0,3.28,1h.15a6.71,6.71,0,0,0,4.7-2,5.56,5.56,0,0,0,1.12,1,5.84,5.84,0,0,0,3.29,1h.08a6.53,6.53,0,0,0,3.57-1.05l0,0a2.84,2.84,0,0,0,2.14,1h.61a2.75,2.75,0,0,0,1-.17,5.23,5.23,0,0,0,1.47.19h.09a6.07,6.07,0,0,0,3.32-1,2.85,2.85,0,0,0,1.46.42h0l4.21-.06a2.83,2.83,0,0,0,2.71-2.23,10.13,10.13,0,0,0,1.69-.27,2.79,2.79,0,0,0,2.77,2.33h.08c4-.1,5.93-.17,9.89-.32a2.76,2.76,0,0,0,1.83-.78,8.86,8.86,0,0,0,3.9.79l.68,0c2.85-.13,4.95-1,6.37-2.58A9,9,0,0,0,164,221l.64,0a11.53,11.53,0,0,0,2.77-.49,2.34,2.34,0,0,0,.38,0H168l2.69-.18a2.83,2.83,0,0,0,2.62-2.47l.65-5.16c0-.11,0-.22,0-.34a.61.61,0,0,0,0-.14A5.86,5.86,0,0,0,172.39,207.74Z"/><path class="cls-13" d="M54.23,217.23h.21a1.55,1.55,0,0,0,1.41-.95l.28-.64c1.18-2.92,1.76-4.38,2.93-7.31l.13-.37a1.82,1.82,0,0,0,.08-.36q0-.53-.6-.69l-.49-.09-.29,0,.17-.48c4.19.28,6.29.4,10.49.63-.45,1.32-.67,2-1.12,3.32l-.61-.1.05-.47a1.74,1.74,0,0,0-.82-1.77,3.79,3.79,0,0,0-1.21-.43,11.26,11.26,0,0,0-1.37-.18,1.45,1.45,0,0,0-.79.1,1.14,1.14,0,0,0-.44.57l-.17.43-1.34,3.32.65,0,.65,0a5.58,5.58,0,0,0,.94-.08,2.76,2.76,0,0,0,1.7-1.33l.16-.24.6.14c-.71,1.87-1.07,2.81-1.79,4.68L63,214.8a4,4,0,0,0,.2-1c0-.65-.35-1.08-1.13-1.28a7.06,7.06,0,0,0-1.12-.18l-.47,0L59,216l-.16.45-.11.37c0,.43.34.69,1.12.79l.3,0c-.06.2-.1.29-.16.48-2.37-.14-3.56-.22-5.93-.39Z"/><path class="cls-13" d="M67.71,214.49A6.44,6.44,0,0,1,69,212.63a5.62,5.62,0,0,1,4.34-2,3.61,3.61,0,0,1,2,.67,2.76,2.76,0,0,1,.54.54,2.49,2.49,0,0,1,.48,1.7,5.42,5.42,0,0,1-1.61,3.43,6.72,6.72,0,0,1-1.61,1.29,4.74,4.74,0,0,1-2.69.73,4.33,4.33,0,0,1-1.21-.24A2.51,2.51,0,0,1,67.34,216,4.09,4.09,0,0,1,67.71,214.49Zm2,2.67a1,1,0,0,0,1,1.14,1.08,1.08,0,0,0,.85-.33,3.79,3.79,0,0,0,.62-.7,8.55,8.55,0,0,0,.62-1.07c.21-.45.42-.93.63-1.45a8,8,0,0,0,.6-2.21c.06-.83-.25-1.27-.89-1.3s-1.12.4-1.69,1.27a9.22,9.22,0,0,0-.69,1.28A10.06,10.06,0,0,0,69.7,217.16Z"/><path class="cls-13" d="M78,215a6.69,6.69,0,0,1,1.24-1.87,5.59,5.59,0,0,1,4.3-2.09,3.63,3.63,0,0,1,2,.64,2.56,2.56,0,0,1,.55.54,2.47,2.47,0,0,1,.51,1.69A5.4,5.4,0,0,1,85,217.33a7.12,7.12,0,0,1-1.59,1.31,4.73,4.73,0,0,1-2.68.76,3.81,3.81,0,0,1-1.22-.23,2.51,2.51,0,0,1-1.93-2.7A4.36,4.36,0,0,1,78,215Zm2,2.65a1,1,0,0,0,1,1.13,1.11,1.11,0,0,0,.85-.34,3.47,3.47,0,0,0,.61-.71,8,8,0,0,0,.6-1.08c.2-.44.41-.93.61-1.45a7.57,7.57,0,0,0,.56-2.22c0-.83-.26-1.27-.91-1.29s-1.11.42-1.67,1.3a9.66,9.66,0,0,0-.67,1.28A9.87,9.87,0,0,0,80,217.62Z"/><path class="cls-13" d="M95.28,209.75l.11-.33a1.07,1.07,0,0,0,.08-.37c0-.24-.19-.39-.52-.42l-.4,0-.37,0,.15-.49,1.32-.08c.53-.05,1.08-.11,1.63-.2l1.06-.17c-1.3,4-2,6-3.3,9.92l-.15.45a.74.74,0,0,0,0,.27.22.22,0,0,0,.23.24.94.94,0,0,0,.62-.41l.42-.5.2-.31.51.29-.3.4c-.94,1.22-1.88,1.83-2.78,1.79a1,1,0,0,1-1.1-1.15l0-.49.08-.39-.38.48a3.37,3.37,0,0,1-2.73,1.45,2,2,0,0,1-1.61-.77,2.42,2.42,0,0,1-.45-1.6,4.75,4.75,0,0,1,.42-1.76,7.83,7.83,0,0,1,1.27-2c1.28-1.5,2.6-2.26,3.94-2.22a1.6,1.6,0,0,1,1.21.51l.12.16Zm-1.41,4.59a4.85,4.85,0,0,0,.42-1.61.68.68,0,0,0-.75-.77.92.92,0,0,0-.52.13,5.45,5.45,0,0,0-1.8,2.06,10.28,10.28,0,0,0-1,2.44,3.28,3.28,0,0,0-.14.82c0,.65.26,1,.8,1,.85,0,1.7-.93,2.5-2.83C93.55,215.1,93.65,214.85,93.87,214.34Z"/><path class="cls-13" d="M100.9,216.68l-.06.59c0,.93.41,1.38,1.28,1.38a2.48,2.48,0,0,0,1.48-.53,2.74,2.74,0,0,0,.55-.53l.3-.38.59.36-.25.37a4.26,4.26,0,0,1-3.57,2,3,3,0,0,1-1.7-.51,2.65,2.65,0,0,1-1.12-2.24,4.85,4.85,0,0,1,.32-1.6,6.83,6.83,0,0,1,1.07-1.85,7.14,7.14,0,0,1,1.53-1.42,4.6,4.6,0,0,1,2.65-.83c1.33,0,2,.56,2,1.6a2.1,2.1,0,0,1-.13.69,3.55,3.55,0,0,1-1.8,1.77,8,8,0,0,1-2.57.81l-.54.07Zm.21-.91.5-.12a3.43,3.43,0,0,0,1.76-1.07,2.89,2.89,0,0,0,.82-1.74c0-.48-.17-.71-.55-.71-.7,0-1.34.68-1.92,2l-.4,1Z"/><path class="cls-13" d="M110.09,216.76l-.06.59c0,.93.43,1.38,1.3,1.36a2.38,2.38,0,0,0,1.47-.54,3.11,3.11,0,0,0,.55-.54l.3-.38.59.36L114,218a4.25,4.25,0,0,1-3.54,2,3,3,0,0,1-1.71-.5,2.59,2.59,0,0,1-1-1.29,2.73,2.73,0,0,1-.16-.94,5.13,5.13,0,0,1,.3-1.6,6.71,6.71,0,0,1,1-1.85,7.11,7.11,0,0,1,1.51-1.44,4.52,4.52,0,0,1,2.64-.86c1.33,0,2,.53,2,1.57a1.79,1.79,0,0,1-.12.69,3.43,3.43,0,0,1-1.77,1.79,8,8,0,0,1-2.56.85l-.54.07Zm.2-.92.49-.12a3.43,3.43,0,0,0,1.75-1.09,2.91,2.91,0,0,0,.79-1.75c0-.47-.18-.71-.56-.7-.69,0-1.33.69-1.89,2l-.38,1Z"/><path class="cls-13" d="M116.66,217.06l.58.07,0,.27a2.64,2.64,0,0,0,.56,1.3,1.71,1.71,0,0,0,1.36.63,1.11,1.11,0,0,0,.79-.28,1,1,0,0,0,.32-.71,2,2,0,0,0-.54-1l-.38-.44-.81-.89a4.24,4.24,0,0,1-.45-.56,3.43,3.43,0,0,1-.41-.72,2.84,2.84,0,0,1-.19-.9,2.08,2.08,0,0,1,.75-1.68,3,3,0,0,1,1.93-.65,4.54,4.54,0,0,1,1.32.22,1.37,1.37,0,0,0,.47.11.64.64,0,0,0,.42-.16l.14-.17h.54l-.4,2.72-.64,0v-.26a1.69,1.69,0,0,0-.64-1.29,1.63,1.63,0,0,0-1.11-.45,1,1,0,0,0-.7.26.79.79,0,0,0-.28.6,1,1,0,0,0,.19.57l.43.51.47.54.88,1c.1.12.22.3.37.52a2.78,2.78,0,0,1,.45,1.44,2.07,2.07,0,0,1-.82,1.7,3.23,3.23,0,0,1-2,.7,2.59,2.59,0,0,1-.77-.09l-.73-.19a2.15,2.15,0,0,0-.46-.07.56.56,0,0,0-.41.14l-.13.19h-.59C116.41,218.81,116.49,218.22,116.66,217.06Z"/><path class="cls-13" d="M135.42,213.29c-.43,2.41-1.9,3.75-5.22,3.81l-1.47,0-.4,2.16-4.2.07c.75-3.82,1.12-5.74,1.85-9.56l5.22-.1C134.14,209.64,135.81,211.06,135.42,213.29Zm-5-.59-.81,0c-.11.57-.16.85-.26,1.42l.78,0c.79,0,1.19-.19,1.27-.73S131.16,212.69,130.37,212.7Z"/><path class="cls-13" d="M145.94,215.55c-.21,1.3-.32,1.95-.53,3.26-3.94.15-5.91.22-9.86.32.69-3.83,1-5.75,1.69-9.58l4.14-.13c-.43,2.53-.64,3.8-1.07,6.33Z"/><path class="cls-13" d="M158.27,208.67s-.31,2.22-.74,5.21-1.68,4.73-5.73,4.92c-3.57.16-5.26-1.21-4.75-4.43.49-3.05.83-5.2.83-5.2L152,209s-.69,4.45-.81,5.26.13,1.18.9,1.14a1.25,1.25,0,0,0,1.29-1.23c.14-.9.77-5.27.77-5.27Z"/><path class="cls-13" d="M163.35,213c-.26,1.16.3,2,1.55,2a2,2,0,0,0,1.1-.33l0-.2-.89,0c.09-.7.14-1,.22-1.74l5.8-.39-.65,5.16-2.68.17,0-.42a7.83,7.83,0,0,1-3.36.89c-3.22.2-6.29-1.63-5.81-5,.43-2.9,2.61-4.91,6.24-5.14,3.42-.21,6.41,1.34,6.23,4l-4.51.3c-.09-.61-.63-.92-1.44-.87A1.89,1.89,0,0,0,163.35,213Z"/><path class="cls-16" d="M120.23,160.68c-.1,0-.28.18-.33.24a1.84,1.84,0,0,0-.31,2.11,1.81,1.81,0,0,0,1.28.9,1.75,1.75,0,0,0,.85,0,1.09,1.09,0,0,0,.71-.6,2,2,0,0,0-.14-1.6c-.06-.13-.11-.26-.18-.38Z"/><path class="cls-16" d="M120.23,178.08c-.1,0-.28.19-.33.25a1.82,1.82,0,0,0-.31,2.1,1.85,1.85,0,0,0,1.28.91,1.88,1.88,0,0,0,.85,0,1.11,1.11,0,0,0,.71-.59,2.06,2.06,0,0,0-.14-1.61c-.06-.13-.11-.25-.18-.37Z"/><path class="cls-16" d="M120.23,195.63c-.1,0-.28.18-.33.24a1.82,1.82,0,0,0-.31,2.1,1.79,1.79,0,0,0,1.28.91,1.88,1.88,0,0,0,.85,0,1.08,1.08,0,0,0,.71-.59,2.06,2.06,0,0,0-.14-1.61c-.06-.12-.11-.25-.18-.37Z"/><path class="cls-16" d="M106.35,160.68c-.1,0-.27.18-.33.24a1.82,1.82,0,0,0-.3,2.11,1.77,1.77,0,0,0,1.27.9,1.74,1.74,0,0,0,.85,0,1.11,1.11,0,0,0,.72-.6,2.08,2.08,0,0,0-.15-1.6,2.64,2.64,0,0,0-.18-.38Z"/><path class="cls-16" d="M107.52,178.08c-.11,0-.28.19-.34.25a1.78,1.78,0,0,0,1,3,1.88,1.88,0,0,0,.85,0,1.11,1.11,0,0,0,.71-.59,2.06,2.06,0,0,0-.15-1.61,2.53,2.53,0,0,0-.18-.37Z"/><path class="cls-16" d="M108.41,195.63c-.1,0-.27.18-.33.24a1.82,1.82,0,0,0-.3,2.1,1.76,1.76,0,0,0,1.28.91,1.88,1.88,0,0,0,.85,0,1.1,1.1,0,0,0,.71-.59,2.06,2.06,0,0,0-.15-1.61,3.14,3.14,0,0,0-.18-.37Z"/></g></g></g></svg>