<svg xmlns="http://www.w3.org/2000/svg" width="41.697" height="42.051" viewBox="0 0 41.697 42.051">
  <g id="Group_249" data-name="Group 249" transform="translate(-184.154 -742.996)">
    <path id="Path_96" data-name="Path 96" d="M39.909,30.777A29.511,29.511,0,0,1,33.4,29.152a3.083,3.083,0,0,0-3.211.613l-4.835,2.907A36.667,36.667,0,0,1,12.009,19.14a1.042,1.042,0,0,1,.182-1.259L15,15.066a3.414,3.414,0,0,0,.749-3.584,29.591,29.591,0,0,1-1.606-6.456,3.355,3.355,0,0,0-3.251-2.861H4.244A3.218,3.218,0,0,0,1.883,3.22,3.383,3.383,0,0,0,1.016,5.8,43.215,43.215,0,0,0,7.661,24.6,41.84,41.84,0,0,0,20.616,37.582,42.7,42.7,0,0,0,39.17,44.2a2.711,2.711,0,0,0,.286.014,3.179,3.179,0,0,0,2.156-.847A3.393,3.393,0,0,0,42.7,40.857V34.213A3.332,3.332,0,0,0,39.909,30.777Z" transform="translate(183.151 740.831)" fill="#fa0"/>
  </g>
</svg>
