<svg xmlns="http://www.w3.org/2000/svg" width="25.778" height="25.896" viewBox="0 0 25.778 25.896">
  <g id="Page-1" transform="translate(-638 495.05)">
    <g id="Group" transform="translate(638 -495.05)">
      <path id="Shape" d="M100.108,112.832a12.809,12.809,0,0,0,1.713,6.415L100,125.9l6.8-1.784a12.826,12.826,0,0,0,6.133,1.562h.005a12.837,12.837,0,1,0-12.835-12.842Zm4.052,6.08-.254-.4a10.638,10.638,0,0,1-1.631-5.676c0-.353.018-.7.054-1.069a10.668,10.668,0,1,1,10.614,11.743h0a10.655,10.655,0,0,1-5.43-1.487l-.39-.231-4.038,1.059Zm8.783,6.762h0Z" transform="translate(-100 -100)" fill="#a80e0e" fill-rule="evenodd"/>
      <path id="Shape-2" data-name="Shape" d="M684.193,681.5c-.24-.534-.493-.545-.722-.554-.187-.008-.4-.007-.615-.007a1.178,1.178,0,0,0-.855.4,3.6,3.6,0,0,0-1.122,2.675,6.241,6.241,0,0,0,1.309,3.317c.16.214,2.219,3.556,5.478,4.841,2.709,1.069,3.26.856,3.848.8a3.239,3.239,0,0,0,2.165-1.525,2.682,2.682,0,0,0,.187-1.525c-.08-.134-.294-.214-.615-.374s-1.9-.936-2.191-1.043-.508-.16-.722.161-.828,1.043-1.015,1.257-.374.241-.695.081a8.777,8.777,0,0,1-2.579-1.592,9.66,9.66,0,0,1-1.784-2.221c-.187-.321-.02-.494.141-.654.144-.144.321-.375.481-.562a2.2,2.2,0,0,0,.32-.535.591.591,0,0,0-.027-.562c-.08-.16-.7-1.747-.989-2.381" transform="translate(-674.073 -674.135)" fill="#a80e0e" fill-rule="evenodd"/>
    </g>
  </g>
</svg>
