<svg xmlns="http://www.w3.org/2000/svg" width="75.612" height="92.276" viewBox="0 0 75.612 92.276">
  <g id="Group_1404" data-name="Group 1404" transform="translate(-540 -1454)">
    <g id="Group_1317" data-name="Group 1317" transform="translate(550.906 1497.554)">
      <path id="Path_3829" data-name="Path 3829" d="M292.023,266.42v21.886a3.665,3.665,0,0,0,7.33,0V261.321Zm0,0" transform="translate(-248.533 -261.321)" fill="#ffeba1"/>
      <path id="Path_3830" data-name="Path 3830" d="M208.258,324.689v7.466a3.665,3.665,0,0,0,7.33,0V319.59Zm0,0" transform="translate(-181.049 -308.264)" fill="#ffeba1"/>
      <path id="Path_3831" data-name="Path 3831" d="M68.27,422.067v8.248a3.665,3.665,0,1,0,7.33,0V416.969Zm0,0" transform="translate(-68.27 -386.716)" fill="#ffeba1"/>
    </g>
    <path id="Path_3832" data-name="Path 3832" d="M303.785,263.756V288.3a3.665,3.665,0,0,1-1.914,3.221,3.666,3.666,0,0,0,5.416-3.221V261.32Zm0,0" transform="translate(292.7 1238.133)" fill="#f7d36f"/>
    <path id="Path_3833" data-name="Path 3833" d="M220.019,322.025v10.129a3.663,3.663,0,0,1-1.913,3.22,3.665,3.665,0,0,0,5.416-3.22V319.59Zm0,0" transform="translate(361.298 1191.129)" fill="#f7d36f"/>
    <path id="Path_3834" data-name="Path 3834" d="M80.03,419.4v10.911a3.664,3.664,0,0,1-1.913,3.22,3.665,3.665,0,0,0,5.416-3.22V416.969Zm0,0" transform="translate(475.938 1110.838)" fill="#f7d36f"/>
    <path id="Path_3835" data-name="Path 3835" d="M31.156,54.97A30.436,30.436,0,0,1,40.11,54.1c5.528.142,14.327,1.46,24.856,6.925S81.587,72.9,84.843,77.32A29.584,29.584,0,0,1,89.2,85.1a4.076,4.076,0,0,0,.581,1.192L29.527,127.716l.3-72.542a4.2,4.2,0,0,0,1.324-.2Zm0,0" transform="translate(516.115 1410.426)" fill="#ffdb57"/>
    <path id="Path_3836" data-name="Path 3836" d="M87.524,208.8l-57.97,43.772-.027,7.024,60.255-45.5a4.673,4.673,0,0,1-.581-1.31,25.114,25.114,0,0,0-1.678-3.989Zm0,0" transform="translate(516.114 1278.542)" fill="#f6c134"/>
    <path id="Path_3837" data-name="Path 3837" d="M51.772,16.1h0C28.392,2.955,11.619,8.618,10.916,8.866a4.609,4.609,0,0,0-2.7,5.723,4.178,4.178,0,0,0,5.344,2.89,28.608,28.608,0,0,1,9.076-.954c5.6.156,14.522,1.6,25.2,7.606s16.849,13.045,20.149,17.9A33.485,33.485,0,0,1,72.4,50.57a4.2,4.2,0,0,0,5.256,3.072,4.59,4.59,0,0,0,2.869-5.627C80.316,47.253,75.15,29.251,51.77,16.1h0Zm0,0" transform="translate(533.454 1448.004)" fill="#ff9f34"/>
    <path id="Path_3838" data-name="Path 3838" d="M77.109,67.487a37.752,37.752,0,0,0-4.964-9.616C68.436,52.411,61.5,44.485,49.5,37.728s-22.018-8.384-28.315-8.56a32.049,32.049,0,0,0-10.2,1.074,4.437,4.437,0,0,1-2.963,0,4.813,4.813,0,0,0,.195,1.831,4.171,4.171,0,0,0,5.336,2.89,28.522,28.522,0,0,1,9.062-.954c5.595.156,14.5,1.6,25.157,7.606S64.6,54.664,67.892,59.514A33.489,33.489,0,0,1,72.3,68.058,4.191,4.191,0,0,0,77.55,71.13a4.135,4.135,0,0,0,1.483-.837,5.072,5.072,0,0,1-1.924-2.806Zm0,0" transform="translate(533.452 1430.516)" fill="#fb8f2d"/>
    <path id="Path_3839" data-name="Path 3839" d="M127.133,175.082a7.691,7.691,0,1,1-7.691-7.691A7.691,7.691,0,0,1,127.133,175.082Zm0,0" transform="translate(448.169 1316.345)" fill="#f2433b"/>
    <path id="Path_3840" data-name="Path 3840" d="M119.442,198.514a7.7,7.7,0,0,1-7.231-5.065,7.691,7.691,0,1,0,14.462,0A7.7,7.7,0,0,1,119.442,198.514Zm0,0" transform="translate(448.17 1295.099)" fill="#d83636"/>
    <path id="Path_3841" data-name="Path 3841" d="M30.2,245.48a7.689,7.689,0,0,0,.064-15.375Zm0,0" transform="translate(515.576 1264.772)" fill="#f2433b"/>
    <path id="Path_3842" data-name="Path 3842" d="M30.217,261.2l-.022,5.254a7.693,7.693,0,0,0,7.1-10.314,7.693,7.693,0,0,1-7.078,5.06Zm0,0" transform="translate(515.576 1243.604)" fill="#d83636"/>
    <path id="Path_3843" data-name="Path 3843" d="M228.988,243.617a7.692,7.692,0,0,0-2.942,14.8l10.626-7.392a7.69,7.69,0,0,0-7.684-7.407Zm0,0" transform="translate(358.238 1253.688)" fill="#f2433b"/>
    <path id="Path_3844" data-name="Path 3844" d="M236.75,254.352,224.4,262.944a7.714,7.714,0,0,0,4.146,4.12l10.626-7.392a7.669,7.669,0,0,0-2.42-5.32Zm0,0" transform="translate(355.723 1244.963)" fill="#d83636"/>
    <path id="Path_3845" data-name="Path 3845" d="M245.883,132.854a7.692,7.692,0,0,0,7.655-6.942,61.737,61.737,0,0,0-9.6-8.193,7.692,7.692,0,0,0,1.941,15.135Zm0,0" transform="translate(344.369 1357.199)" fill="#f2433b"/>
    <path id="Path_3846" data-name="Path 3846" d="M252.094,144.417a7.691,7.691,0,0,1-13.441-1.9,7.692,7.692,0,1,0,14.885,3.374q-.684-.724-1.443-1.469Zm0,0" transform="translate(344.369 1336.94)" fill="#d83636"/>
    <path id="Path_3847" data-name="Path 3847" d="M85.809,65.854a7.69,7.69,0,0,0,7.422-9.708,54.474,54.474,0,0,0-13.07-2.036c-.3-.008-.592-.012-.881-.014a7.691,7.691,0,0,0,6.529,11.757Zm0,0" transform="translate(475.78 1410.417)" fill="#f2433b"/>
    <path id="Path_3848" data-name="Path 3848" d="M92.833,62.017a7.693,7.693,0,0,1-14.255-.5,7.691,7.691,0,1,0,14.652.607c-.134-.037-.264-.071-.4-.106Zm0,0" transform="translate(475.78 1404.441)" fill="#d83636"/>
    <path id="Path_3849" data-name="Path 3849" d="M107.4,343.9a7.69,7.69,0,0,0-5.225,13.334l12.335-8.579A7.693,7.693,0,0,0,107.4,343.9Zm0,0" transform="translate(458.067 1171.33)" fill="#f2433b"/>
    <path id="Path_3850" data-name="Path 3850" d="M110.441,347.031l-10.682,7.431a7.667,7.667,0,0,0,2.458,5.294l12.334-8.579a7.716,7.716,0,0,0-4.109-4.145Zm0,0" transform="translate(458.028 1168.795)" fill="#d83636"/>
    <path id="Path_3851" data-name="Path 3851" d="M75.883,38.581c-.215-.727-5.553-17.942-29.487-30.4l-.027-.014C22.425-4.282,5.084,1.139,4.358,1.375a5.538,5.538,0,0,0-.775,10.239,5.7,5.7,0,0,0,1.139.424l-.048,11.43a1.359,1.359,0,0,0,1.36,1.359H6.04A1.359,1.359,0,0,0,7.405,23.48l.048-11.431c.132-.032.264-.068.4-.111a25.958,25.958,0,0,1,5.752-.8,8.418,8.418,0,0,0-.343,2.377,8.567,8.567,0,0,0,17.133.015,65.994,65.994,0,0,1,10.771,4.478c1.856.966,3.57,1.961,5.157,2.967A8.517,8.517,0,1,0,58.787,31.568c.807.936,1.506,1.821,2.107,2.638a29.462,29.462,0,0,1,4.222,7.507c.04.136.087.269.136.4l-9.21,6.345a8.579,8.579,0,0,0-16.73,2.58A8.429,8.429,0,0,0,42.6,57.721l-9.71,6.69a8.584,8.584,0,0,0-15.7,4.7A8.451,8.451,0,0,0,18.828,74.1l-6.76,4.657-4.91,3.382.106-25.185A8.554,8.554,0,0,0,14.348,48.6a8.4,8.4,0,0,0-2.439-5.928,8.542,8.542,0,0,0-4.576-2.414l.048-11.364a1.36,1.36,0,0,0-1.36-1.359H6.016A1.36,1.36,0,0,0,4.65,28.881L4.415,84.728a1.38,1.38,0,0,0,2.146,1.117l4.9-3.379v5.059a4.8,4.8,0,0,0,9.595,0V75.856l15.879-10.94v4.333a4.8,4.8,0,0,0,9.595,0V58.306l5.649-3.892V72.119a4.8,4.8,0,0,0,9.595,0V67.344a1.366,1.366,0,0,0-2.732,0v4.775a2.065,2.065,0,0,1-4.131,0V52.532l4.131-2.846V61.933a1.366,1.366,0,0,0,2.732,0V47.8l5.035-3.469a5.651,5.651,0,0,0,5.269,1.143,5.564,5.564,0,0,0,3.344-2.669,5.474,5.474,0,0,0,.458-4.228ZM11.617,48.6a5.82,5.82,0,0,1-4.34,5.582l.047-11.158A5.748,5.748,0,0,1,11.617,48.6ZM27.66,13.519a5.835,5.835,0,0,1-11.669,0,5.718,5.718,0,0,1,.53-2.4,49.661,49.661,0,0,1,11.085,1.623,5.739,5.739,0,0,1,.054.78ZM50.953,33.9A5.771,5.771,0,0,1,48.9,22.708a56.289,56.289,0,0,1,7.769,6.564A5.793,5.793,0,0,1,50.953,33.9ZM47.879,45.259a5.793,5.793,0,0,1,5.758,4.856L45,56.064a5.75,5.75,0,0,1-2.96-5.026,5.814,5.814,0,0,1,5.835-5.779ZM25.755,63.333a5.826,5.826,0,0,1,4.886,2.626l-9.573,6.6a5.672,5.672,0,0,1-1.149-3.442A5.813,5.813,0,0,1,25.755,63.333ZM18.328,87.525a2.065,2.065,0,0,1-4.131,0V80.584l4.131-2.846ZM43.8,69.249a2.065,2.065,0,0,1-4.131,0V63.034L43.8,60.188ZM73.026,41.512a2.888,2.888,0,0,1-5.288-.561A30.817,30.817,0,0,0,63.1,32.613,54.957,54.957,0,0,0,49.938,20.121C40.037,13.257,27.6,8.394,15.39,8.394a29.976,29.976,0,0,0-8.38.968A2.914,2.914,0,0,1,3.377,7.545a2.849,2.849,0,0,1,1.835-3.6c.682-.222,16.955-5.306,39.886,6.617l0,0,.018.009C68.044,22.5,73.059,38.661,73.261,39.343a2.807,2.807,0,0,1-.235,2.169Zm0,0" transform="translate(539.5 1454)"/>
    <path id="Path_3852" data-name="Path 3852" d="M117.771,175.523a1.458,1.458,0,0,0,2.063.01,9.151,9.151,0,1,0-6.44,2.65,1.459,1.459,0,0,0,0-2.918,6.231,6.231,0,1,1,4.386-1.8A1.458,1.458,0,0,0,117.771,175.523Zm0,0" transform="translate(454.259 1322.424)"/>
  </g>
</svg>
