<svg xmlns="http://www.w3.org/2000/svg" width="75.946" height="92.684" viewBox="0 0 75.946 92.684">
  <g id="Group_1404" data-name="Group 1404" transform="translate(-540 -1454)">
    <g id="Group_1317" data-name="Group 1317" transform="translate(550.954 1497.746)">
      <path id="Path_3829" data-name="Path 3829" d="M292.023,266.442v21.982a3.681,3.681,0,1,0,7.362,0v-27.1Zm0,0" transform="translate(-248.341 -261.321)" fill="#ffeba1"/>
      <path id="Path_3830" data-name="Path 3830" d="M208.258,324.711v7.5a3.681,3.681,0,1,0,7.362,0V319.59Zm0,0" transform="translate(-180.929 -308.214)" fill="#ffeba1"/>
      <path id="Path_3831" data-name="Path 3831" d="M68.27,422.089v8.285a3.681,3.681,0,1,0,7.362,0V416.969Zm0,0" transform="translate(-68.27 -386.583)" fill="#ffeba1"/>
    </g>
    <path id="Path_3832" data-name="Path 3832" d="M303.794,263.767v24.657a3.681,3.681,0,0,1-1.922,3.235,3.683,3.683,0,0,0,5.44-3.235v-27.1Zm0,0" transform="translate(292.941 1238.334)" fill="#f7d36f"/>
    <path id="Path_3833" data-name="Path 3833" d="M220.027,322.036V332.21a3.68,3.68,0,0,1-1.922,3.234,3.681,3.681,0,0,0,5.44-3.234V319.59Zm0,0" transform="translate(361.472 1191.38)" fill="#f7d36f"/>
    <path id="Path_3834" data-name="Path 3834" d="M80.039,419.415v10.959a3.68,3.68,0,0,1-1.922,3.234,3.681,3.681,0,0,0,5.44-3.234V416.969Zm0,0" transform="translate(476 1111.164)" fill="#f7d36f"/>
    <path id="Path_3835" data-name="Path 3835" d="M31.163,54.974a30.571,30.571,0,0,1,8.993-.873c5.552.143,14.39,1.466,24.966,6.956s16.695,11.93,19.965,16.366a29.715,29.715,0,0,1,4.377,7.813,4.094,4.094,0,0,0,.583,1.2L29.527,128.041l.306-72.862a4.218,4.218,0,0,0,1.33-.206Zm0,0" transform="translate(516.14 1410.473)" fill="#ffdb57"/>
    <path id="Path_3836" data-name="Path 3836" d="M87.78,208.8,29.554,252.77l-.027,7.055,60.521-45.7a4.694,4.694,0,0,1-.583-1.315A25.221,25.221,0,0,0,87.78,208.8Zm0,0" transform="translate(516.139 1278.689)" fill="#f6c134"/>
    <path id="Path_3837" data-name="Path 3837" d="M51.966,16.142h0C28.482,2.935,11.635,8.623,10.929,8.873a4.629,4.629,0,0,0-2.71,5.748,4.2,4.2,0,0,0,5.368,2.9,28.735,28.735,0,0,1,9.116-.959c5.628.157,14.587,1.61,25.307,7.64s16.923,13.1,20.238,17.975a33.633,33.633,0,0,1,4.437,8.581,4.217,4.217,0,0,0,5.279,3.085,4.611,4.611,0,0,0,2.881-5.652c-.209-.764-5.4-18.846-28.882-32.053h0Zm0,0" transform="translate(533.461 1448.01)" fill="#ff9f34"/>
    <path id="Path_3838" data-name="Path 3838" d="M77.414,67.656A37.919,37.919,0,0,0,72.428,58c-3.725-5.484-10.7-13.445-22.743-20.231s-22.116-8.421-28.44-8.6A32.191,32.191,0,0,0,11,30.247a4.456,4.456,0,0,1-2.976,0,4.834,4.834,0,0,0,.2,1.839,4.189,4.189,0,0,0,5.36,2.9,28.648,28.648,0,0,1,9.1-.959c5.619.157,14.564,1.611,25.268,7.64s16.9,13.1,20.207,17.975a33.636,33.636,0,0,1,4.43,8.581,4.21,4.21,0,0,0,5.271,3.085,4.153,4.153,0,0,0,1.49-.841,5.094,5.094,0,0,1-1.933-2.819Zm0,0" transform="translate(533.459 1430.541)" fill="#fb8f2d"/>
    <path id="Path_3839" data-name="Path 3839" d="M127.2,175.116a7.725,7.725,0,1,1-7.725-7.725A7.725,7.725,0,0,1,127.2,175.116Zm0,0" transform="translate(448.257 1316.477)" fill="#f2433b"/>
    <path id="Path_3840" data-name="Path 3840" d="M119.476,198.537a7.729,7.729,0,0,1-7.263-5.087,7.725,7.725,0,1,0,14.526,0A7.729,7.729,0,0,1,119.476,198.537Zm0,0" transform="translate(448.258 1295.252)" fill="#d83636"/>
    <path id="Path_3841" data-name="Path 3841" d="M30.2,245.548a7.723,7.723,0,0,0,.064-15.442Zm0,0" transform="translate(515.602 1264.952)" fill="#f2433b"/>
    <path id="Path_3842" data-name="Path 3842" d="M30.217,261.224,30.2,266.5a7.727,7.727,0,0,0,7.132-10.36,7.727,7.727,0,0,1-7.11,5.083Zm0,0" transform="translate(515.602 1243.806)" fill="#d83636"/>
    <path id="Path_3843" data-name="Path 3843" d="M229.022,243.617a7.726,7.726,0,0,0-2.955,14.864l10.673-7.425A7.724,7.724,0,0,0,229.022,243.617Zm0,0" transform="translate(358.412 1253.88)" fill="#f2433b"/>
    <path id="Path_3844" data-name="Path 3844" d="M236.8,254.352l-12.407,8.63a7.748,7.748,0,0,0,4.165,4.138l10.673-7.425a7.7,7.7,0,0,0-2.431-5.344Zm0,0" transform="translate(355.9 1245.163)" fill="#d83636"/>
    <path id="Path_3845" data-name="Path 3845" d="M245.917,132.921a7.726,7.726,0,0,0,7.688-6.973,62.01,62.01,0,0,0-9.638-8.229,7.726,7.726,0,0,0,1.95,15.2Zm0,0" transform="translate(344.557 1357.291)" fill="#f2433b"/>
    <path id="Path_3846" data-name="Path 3846" d="M252.155,144.426a7.725,7.725,0,0,1-13.5-1.913,7.726,7.726,0,1,0,14.951,3.389q-.688-.728-1.45-1.476Zm0,0" transform="translate(344.557 1337.052)" fill="#d83636"/>
    <path id="Path_3847" data-name="Path 3847" d="M85.843,65.906a7.724,7.724,0,0,0,7.455-9.75A54.715,54.715,0,0,0,80.17,54.111c-.3-.008-.595-.012-.885-.014a7.725,7.725,0,0,0,6.558,11.809Zm0,0" transform="translate(475.841 1410.463)" fill="#f2433b"/>
    <path id="Path_3848" data-name="Path 3848" d="M92.9,62.019a7.727,7.727,0,0,1-14.318-.5,7.725,7.725,0,1,0,14.717.61c-.134-.037-.265-.071-.4-.107Zm0,0" transform="translate(475.842 1404.494)" fill="#d83636"/>
    <path id="Path_3849" data-name="Path 3849" d="M107.436,343.9a7.724,7.724,0,0,0-5.248,13.393l12.389-8.617A7.727,7.727,0,0,0,107.436,343.9Zm0,0" transform="translate(458.145 1171.601)" fill="#f2433b"/>
    <path id="Path_3850" data-name="Path 3850" d="M110.488,347.031l-10.73,7.464a7.7,7.7,0,0,0,2.468,5.318l12.388-8.617a7.75,7.75,0,0,0-4.127-4.164Zm0,0" transform="translate(458.106 1169.068)" fill="#d83636"/>
    <path id="Path_3851" data-name="Path 3851" d="M76.216,38.751C76,38.02,70.638,20.73,46.6,8.218L46.572,8.2C22.522-4.3,5.1,1.144,4.375,1.381A5.562,5.562,0,0,0,3.6,11.666a5.723,5.723,0,0,0,1.144.426L4.692,23.572a1.365,1.365,0,0,0,1.367,1.365h.006a1.365,1.365,0,0,0,1.372-1.353L7.484,12.1c.133-.033.266-.069.4-.112a26.073,26.073,0,0,1,5.777-.8,8.455,8.455,0,0,0-.344,2.388,8.605,8.605,0,0,0,17.209.016,66.285,66.285,0,0,1,10.819,4.5c1.864.97,3.586,1.969,5.18,2.981A8.555,8.555,0,1,0,59.044,31.707c.81.94,1.513,1.829,2.116,2.65A29.593,29.593,0,0,1,65.4,41.9c.04.136.087.27.137.4l-9.251,6.373a8.617,8.617,0,0,0-16.8,2.592,8.466,8.466,0,0,0,3.3,6.713L33.031,64.7a8.622,8.622,0,0,0-15.77,4.721,8.488,8.488,0,0,0,1.648,5.008L12.119,79.1,7.188,82.5l.106-25.3a8.592,8.592,0,0,0,7.115-8.39,8.432,8.432,0,0,0-2.45-5.954,8.58,8.58,0,0,0-4.6-2.425l.049-11.414a1.366,1.366,0,0,0-1.367-1.365H6.041a1.366,1.366,0,0,0-1.372,1.353L4.433,85.1a1.386,1.386,0,0,0,2.155,1.122l4.926-3.393v5.081a4.819,4.819,0,0,0,9.637,0V76.191L37.1,65.2v4.352a4.819,4.819,0,0,0,9.637,0V58.563l5.674-3.909V72.438a4.819,4.819,0,0,0,9.637,0v-4.8a1.372,1.372,0,0,0-2.744,0v4.8a2.074,2.074,0,0,1-4.149,0V52.764L59.3,49.906v12.3a1.372,1.372,0,0,0,2.744,0V48.015L67.1,44.531A5.676,5.676,0,0,0,72.4,45.679,5.588,5.588,0,0,0,75.755,43a5.5,5.5,0,0,0,.46-4.247ZM11.666,48.813A5.846,5.846,0,0,1,7.306,54.42l.047-11.207a5.773,5.773,0,0,1,4.312,5.6ZM27.78,13.579a5.861,5.861,0,0,1-11.721,0,5.743,5.743,0,0,1,.533-2.414A49.88,49.88,0,0,1,27.725,12.8a5.765,5.765,0,0,1,.054.783Zm23.4,20.468a5.8,5.8,0,0,1-2.06-11.239,56.538,56.538,0,0,1,7.8,6.593,5.818,5.818,0,0,1-5.744,4.647ZM48.088,45.459a5.818,5.818,0,0,1,5.784,4.878L45.2,56.312a5.776,5.776,0,0,1-2.973-5.048,5.84,5.84,0,0,1,5.861-5.8ZM25.866,63.613a5.852,5.852,0,0,1,4.908,2.638l-9.615,6.624a5.7,5.7,0,0,1-1.154-3.457A5.839,5.839,0,0,1,25.866,63.613Zm-7.459,24.3a2.074,2.074,0,0,1-4.149,0V80.94l4.149-2.858ZM43.993,69.555a2.074,2.074,0,0,1-4.149,0V63.312l4.149-2.858ZM73.346,41.7a2.9,2.9,0,0,1-5.312-.564,30.953,30.953,0,0,0-4.656-8.375A55.2,55.2,0,0,0,50.156,20.21c-9.945-6.894-22.435-11.779-34.7-11.779A30.108,30.108,0,0,0,7.039,9.4,2.926,2.926,0,0,1,3.39,7.579,2.861,2.861,0,0,1,5.232,3.963c.685-.223,17.03-5.33,40.062,6.646l0,0,.018.009C68.342,22.6,73.379,38.831,73.583,39.517a2.82,2.82,0,0,1-.236,2.179Zm0,0" transform="translate(539.5 1454)"/>
    <path id="Path_3852" data-name="Path 3852" d="M117.83,175.592a1.465,1.465,0,0,0,2.072.01,9.191,9.191,0,1,0-6.468,2.661,1.465,1.465,0,0,0,0-2.931,6.259,6.259,0,1,1,4.405-1.813A1.464,1.464,0,0,0,117.83,175.592Zm0,0" transform="translate(454.34 1322.549)"/>
  </g>
</svg>
